<svg width="128" height="128" viewBox="0 0 128 128" fill="none" xmlns="http://www.w3.org/2000/svg">
<path d="M16 117.333H112" stroke="black" stroke-width="8" stroke-linecap="round" stroke-linejoin="round"/>
<path d="M29.8666 44.6926H21.3333C18.4 44.6926 16 47.0926 16 50.026V95.9994C16 98.9327 18.4 101.333 21.3333 101.333H29.8666C32.7999 101.333 35.1999 98.9327 35.1999 95.9994V50.026C35.1999 47.0926 32.7999 44.6926 29.8666 44.6926Z" stroke="black" stroke-width="8" stroke-linecap="round" stroke-linejoin="round"/>
<path d="M68.2665 27.6797H59.7337C56.8004 27.6797 54.4004 30.0797 54.4004 33.013V95.9995C54.4004 98.9328 56.8004 101.333 59.7337 101.333H68.2665C71.1999 101.333 73.5999 98.9328 73.5999 95.9995V33.013C73.5999 30.0797 71.1999 27.6797 68.2665 27.6797Z" stroke="black" stroke-width="8" stroke-linecap="round" stroke-linejoin="round"/>
<path d="M106.666 10.6666H98.1331C95.1998 10.6666 92.7998 13.0666 92.7998 16V96C92.7998 98.9333 95.1998 101.333 98.1331 101.333H106.666C109.6 101.333 112 98.9333 112 96V16C112 13.0666 109.6 10.6666 106.666 10.6666Z" stroke="black" stroke-width="8" stroke-linecap="round" stroke-linejoin="round"/>
</svg>
